<?xml version="1.0" encoding="UTF-8" standalone="no"?>
<!-- Created with Inkscape (http://www.inkscape.org/) -->

<svg
   width="1000"
   height="1000"
   viewBox="0 0 264.58333 264.58334"
   version="1.1"
   id="svg1384"
   inkscape:version="1.1.1 (3bf5ae0d25, 2021-09-20)"
   sodipodi:docname="favicon.svg"
   inkscape:export-filename="/home/diegomiguel/Documents/repos/diegomiguel-website/images/favicon/favicon.png"
   inkscape:export-xdpi="300"
   inkscape:export-ydpi="300"
   xmlns:inkscape="http://www.inkscape.org/namespaces/inkscape"
   xmlns:sodipodi="http://sodipodi.sourceforge.net/DTD/sodipodi-0.dtd"
   xmlns="http://www.w3.org/2000/svg"
   xmlns:svg="http://www.w3.org/2000/svg">
  <sodipodi:namedview
     id="namedview1386"
     pagecolor="#ffffff"
     bordercolor="#666666"
     borderopacity="1.0"
     inkscape:pageshadow="2"
     inkscape:pageopacity="0.0"
     inkscape:pagecheckerboard="0"
     inkscape:document-units="mm"
     showgrid="false"
     units="px"
     inkscape:zoom="0.5"
     inkscape:cx="5"
     inkscape:cy="621"
     inkscape:window-width="1920"
     inkscape:window-height="1022"
     inkscape:window-x="0"
     inkscape:window-y="28"
     inkscape:window-maximized="1"
     inkscape:current-layer="layer1"
     inkscape:snap-global="true" />
  <defs
     id="defs1381">
    <rect
       x="111.55785"
       y="212.4944"
       width="739.39906"
       height="685.42727"
       id="rect3194" />
  </defs>
  <g
     inkscape:label="Layer 1"
     inkscape:groupmode="layer"
     id="layer1">
    <path
       d="M 40.363183,235.48097 H 156.51681 c 11.92018,0 23.43092,-2.72986 34.53216,-8.1896 11.10125,-5.45976 20.70109,-12.78494 28.79955,-21.97554 8.09848,-9.19058 14.55902,-20.15557 19.38169,-32.89498 4.91367,-12.83042 7.3705,-26.20683 7.3705,-40.12916 0,-13.92239 -2.45683,-27.2533 -7.3705,-39.99271 C 234.40754,79.559559 227.947,68.594562 219.84852,59.403963 211.75006,50.12239 202.15022,42.751727 191.04897,37.291975 179.94773,31.832223 168.43699,29.102346 156.51681,29.102346 H 40.363183 Z"
       style="font-size:400px;line-height:1.65;font-family:Monoton;-inkscape-font-specification:Monoton;white-space:pre;fill:none;stroke:#e94f4a;stroke-width:12;stroke-linejoin:round;stroke-miterlimit:4;stroke-dasharray:none;stroke-opacity:1"
       id="path1899"
       sodipodi:nodetypes="cssscsccsscc" />
    <path
       d="m 73.19906,202.62403 h 79.16708 c 8.1245,0 15.96986,-1.86061 23.53619,-5.58193 7.56632,-3.72129 14.1093,-8.71401 19.62897,-14.9782 5.51968,-6.26418 9.92302,-13.73774 13.21004,-22.42077 3.34901,-8.74501 5.02352,-17.86219 5.02352,-27.35144 0,-9.48932 -1.67451,-18.57546 -5.02352,-27.25848 C 205.45432,96.350217 201.05098,88.876611 195.5313,82.612453 190.01163,76.286264 183.46865,71.262516 175.90233,67.541239 168.336,63.819941 160.49064,61.959304 152.36614,61.959304 H 73.19906 Z"
       style="font-size:400px;line-height:1.65;font-family:Monoton;-inkscape-font-specification:Monoton;white-space:pre;fill:none;stroke:#e94f4a;stroke-width:12;stroke-linejoin:round;stroke-miterlimit:4;stroke-dasharray:none;stroke-opacity:1"
       id="path7933"
       sodipodi:nodetypes="cssscsccsscc" />
    <path
       d="m 105.8996,169.90249 h 42.33299 c 4.34441,0 8.53958,-0.99498 12.58549,-2.98501 4.04593,-1.98998 7.54466,-4.65986 10.49622,-8.00969 2.95151,-3.34983 5.30611,-7.34637 7.0638,-11.98971 1.79079,-4.67644 2.68621,-9.55197 2.68621,-14.62639 0,-5.0745 -0.89542,-9.93339 -2.68621,-14.57669 -1.75769,-4.64333 -4.11229,-8.63989 -7.0638,-11.98969 -2.95156,-3.383 -6.45029,-6.069477 -10.49622,-8.059472 -4.04591,-1.989996 -8.24108,-2.984987 -12.58549,-2.984987 H 105.8996 Z"
       style="font-size:400px;line-height:1.65;font-family:Monoton;-inkscape-font-specification:Monoton;white-space:pre;fill:none;stroke:#e94f4a;stroke-width:12;stroke-linejoin:round;stroke-miterlimit:4;stroke-dasharray:none;stroke-opacity:1"
       id="path7935"
       sodipodi:nodetypes="cssscsccsscc" />
  </g>
</svg>
