<?xml version="1.0" encoding="UTF-8" standalone="no"?>
<svg
   xmlns:dc="http://purl.org/dc/elements/1.1/"
   xmlns:cc="http://creativecommons.org/ns#"
   xmlns:rdf="http://www.w3.org/1999/02/22-rdf-syntax-ns#"
   xmlns:svg="http://www.w3.org/2000/svg"
   xmlns="http://www.w3.org/2000/svg"
   xmlns:sodipodi="http://sodipodi.sourceforge.net/DTD/sodipodi-0.dtd"
   xmlns:inkscape="http://www.inkscape.org/namespaces/inkscape"
   version="1.1"
   id="Layer_1"
   x="0px"
   y="0px"
   viewBox="0 0 330.001 390.001"
   xml:space="preserve"
   sodipodi:docname="email.svg"
   width="330.00101"
   height="390.00101"
   inkscape:version="1.0.2 (e86c870879, 2021-01-15)"><metadata
   id="metadata38"><rdf:RDF><cc:Work
       rdf:about=""><dc:format>image/svg+xml</dc:format><dc:type
         rdf:resource="http://purl.org/dc/dcmitype/StillImage" /><dc:title></dc:title></cc:Work></rdf:RDF></metadata><defs
   id="defs36" /><sodipodi:namedview
   pagecolor="#ffffff"
   bordercolor="#666666"
   borderopacity="1"
   objecttolerance="10"
   gridtolerance="10"
   guidetolerance="10"
   inkscape:pageopacity="0"
   inkscape:pageshadow="2"
   inkscape:window-width="1920"
   inkscape:window-height="1022"
   id="namedview34"
   showgrid="false"
   inkscape:snap-page="true"
   inkscape:zoom="1.8320438"
   inkscape:cx="166.35942"
   inkscape:cy="167.31865"
   inkscape:window-x="0"
   inkscape:window-y="28"
   inkscape:window-maximized="1"
   inkscape:current-layer="Layer_1" />
<path
   id="XMLID_20_"
   d="m 165.001,56.473028 c -90.981,0 -165,74.018002 -165,164.997002 0,90.983 74.019,165.004 165,165.004 8.284,0 15,-6.716 15,-15 0,-8.284 -6.716,-15 -15,-15 -74.44,0 -135,-60.563 -135,-135.004 -0.001,-74.437 60.56,-134.997002 135,-134.997002 74.44,0 135,60.560002 135,134.997002 v 37.507 c 0,12.407 -10.096,22.5 -22.504,22.5 -12.406,0 -22.499,-10.093 -22.499,-22.5 v -37.507 c 0,-49.626 -40.372,-90 -89.997,-90 -49.626,0 -89.999,40.374 -89.999,90 0,49.63 40.373,90.007 89.999,90.007 25.927,0 49.323,-11.026 65.762,-28.63 8.706,16.978 26.379,28.63 46.734,28.63 28.951,0 52.504,-23.551 52.504,-52.5 v -37.507 C 330,130.49103 255.982,56.473028 165.001,56.473028 Z m 0,225.004002 c -33.084,0 -59.999,-26.919 -59.999,-60.007 0,-33.084 26.915,-60 59.999,-60 33.083,0 59.997,26.916 59.997,60 0,33.088 -26.915,60.007 -59.997,60.007 z" />
<g
   id="g3">
</g>
<g
   id="g5">
</g>
<g
   id="g7">
</g>
<g
   id="g9">
</g>
<g
   id="g11">
</g>
<g
   id="g13">
</g>
<g
   id="g15">
</g>
<g
   id="g17">
</g>
<g
   id="g19">
</g>
<g
   id="g21">
</g>
<g
   id="g23">
</g>
<g
   id="g25">
</g>
<g
   id="g27">
</g>
<g
   id="g29">
</g>
<g
   id="g31">
</g>
</svg>
