<?xml version="1.0" encoding="UTF-8" standalone="no"?>
<svg
   xmlns:dc="http://purl.org/dc/elements/1.1/"
   xmlns:cc="http://creativecommons.org/ns#"
   xmlns:rdf="http://www.w3.org/1999/02/22-rdf-syntax-ns#"
   xmlns:svg="http://www.w3.org/2000/svg"
   xmlns="http://www.w3.org/2000/svg"
   xmlns:sodipodi="http://sodipodi.sourceforge.net/DTD/sodipodi-0.dtd"
   xmlns:inkscape="http://www.inkscape.org/namespaces/inkscape"
   id="Bold"
   enable-background="new 0 0 24 24"
   height="512"
   viewBox="0 0 24 24"
   width="512"
   version="1.1"
   sodipodi:docname="linkedin-logo.svg"
   inkscape:version="1.0.2 (e86c870879, 2021-01-15)">
  <metadata
     id="metadata13">
    <rdf:RDF>
      <cc:Work
         rdf:about="">
        <dc:format>image/svg+xml</dc:format>
        <dc:type
           rdf:resource="http://purl.org/dc/dcmitype/StillImage" />
      </cc:Work>
    </rdf:RDF>
  </metadata>
  <defs
     id="defs11" />
  <sodipodi:namedview
     pagecolor="#ffffff"
     bordercolor="#666666"
     borderopacity="1"
     objecttolerance="10"
     gridtolerance="10"
     guidetolerance="10"
     inkscape:pageopacity="0"
     inkscape:pageshadow="2"
     inkscape:window-width="1920"
     inkscape:window-height="1022"
     id="namedview9"
     showgrid="false"
     inkscape:zoom="1.1808131"
     inkscape:cx="211.97225"
     inkscape:cy="268.03012"
     inkscape:window-x="0"
     inkscape:window-y="28"
     inkscape:window-maximized="1"
     inkscape:current-layer="Bold" />
  <path
     d="m 21.703863,21.708716 v -8.09e-4 h 0.0048 v -7.121343 c 0,-3.483811 -0.749998,-6.1674621 -4.822804,-6.1674621 -1.957925,0 -3.271838,1.0744312 -3.808245,2.0930381 h -0.05663 V 8.7443439 H 9.1593924 V 21.707907 h 4.0210266 v -6.419079 c 0,-1.690126 0.320387,-3.324426 2.413424,-3.324426 2.062295,0 2.093039,1.928797 2.093039,3.43284 v 6.311474 z"
     id="path2"
     style="stroke-width:0.80906" />
  <path
     d="m 2.6116723,8.7451529 h 4.025881 V 21.708716 h -4.025881 z"
     id="path4"
     style="stroke-width:0.80906" />
  <path
     d="m 4.6229947,2.2912837 c -1.287214,0 -2.3317101,1.0444961 -2.3317101,2.3317101 0,1.287214 1.0444961,2.3535547 2.3317101,2.3535547 1.287214,0 2.3317099,-1.0663407 2.3317099,-2.3535547 -8.09e-4,-1.287214 -1.045305,-2.3317101 -2.3317099,-2.3317101 z"
     id="path6"
     style="stroke-width:0.80906" />
</svg>
